{
  "accessors": [
    {
      "bufferView": 2,
      "componentType": 5126,
      "count": 65532,
      "max": [
        1.0970706939697266,
        2.084716796875,
        1.3185620307922363
      ],
      "min": [
        -0.9396030902862549,
        -3.2005105018615723,
        -0.47385016083717346
      ],
      "type": "VEC3"
    },
    {
      "bufferView": 2,
      "byteOffset": 786384,
      "componentType": 5126,
      "count": 65532,
      "max": [
        0.9999911785125732,
        0.9994693994522095,
        0.9999667406082153
      ],
      "min": [
        -0.9999980330467224,
        -0.9996675848960876,
        -0.9999987483024597
      ],
      "type": "VEC3"
    },
    {
      "bufferView": 1,
      "componentType": 5126,
      "count": 65532,
      "max": [
        0.9927679300308228,
        0.9999464154243469
      ],
      "min": [
        0.003488283371552825,
        0.1885782778263092
      ],
      "type": "VEC2"
    },
    {
      "bufferView": 0,
      "componentType": 5125,
      "count": 358689,
      "type": "SCALAR"
    },
    {
      "bufferView": 2,
      "byteOffset": 1572768,
      "componentType": 5126,
      "count": 65533,
      "max": [
        1.380630612373352,
        3.4593701362609863,
        1.7466633319854736
      ],
      "min": [
        -1.1462712287902832,
        -2.6979615688323975,
        -0.4121410846710205
      ],
      "type": "VEC3"
    },
    {
      "bufferView": 2,
      "byteOffset": 2359164,
      "componentType": 5126,
      "count": 65533,
      "max": [
        0.9999750256538391,
        0.9985657334327698,
        0.9999329447746277
      ],
      "min": [
        -0.9999828934669495,
        -0.9999657869338989,
        -0.9999940395355225
      ],
      "type": "VEC3"
    },
    {
      "bufferView": 1,
      "byteOffset": 524256,
      "componentType": 5126,
      "count": 65533,
      "max": [
        0.9920416474342346,
        0.9809314012527466
      ],
      "min": [
        0.008419277146458626,
        0.021187156438827515
      ],
      "type": "VEC2"
    },
    {
      "bufferView": 0,
      "byteOffset": 1434756,
      "componentType": 5125,
      "count": 348831,
      "type": "SCALAR"
    },
    {
      "bufferView": 2,
      "byteOffset": 3145560,
      "componentType": 5126,
      "count": 33136,
      "max": [
        1.3833507299423218,
        3.442784070968628,
        1.714290738105774
      ],
      "min": [
        -1.038109540939331,
        -2.984593391418457,
        -0.4313671886920929
      ],
      "type": "VEC3"
    },
    {
      "bufferView": 2,
      "byteOffset": 3543192,
      "componentType": 5126,
      "count": 33136,
      "max": [
        0.9999911785125732,
        0.9999034404754639,
        0.9996010065078735
      ],
      "min": [
        -0.9999485015869141,
        -0.999912440776825,
        -0.9999987483024597
      ],
      "type": "VEC3"
    },
    {
      "bufferView": 1,
      "byteOffset": 1048520,
      "componentType": 5126,
      "count": 33136,
      "max": [
        0.992780327796936,
        0.9976261258125305
      ],
      "min": [
        0.002253551036119461,
        0.03532710298895836
      ],
      "type": "VEC2"
    },
    {
      "bufferView": 0,
      "byteOffset": 2830080,
      "componentType": 5125,
      "count": 123672,
      "type": "SCALAR"
    }
  ],
  "asset": {
    "extras": {
      "author": "ARCHAEOPTIC (https://sketchfab.com/archaeoptic)",
      "license": "CC-BY-4.0 (http://creativecommons.org/licenses/by/4.0/)",
      "source": "https://sketchfab.com/3d-models/lapidarium-room-5-artifact-3-d2028cc7be524fa3b1803dae3bb6e99a",
      "title": "Lapidarium Room 5 Artifact 3"
    },
    "generator": "Sketchfab-12.68.0",
    "version": "2.0"
  },
  "bufferViews": [
    {
      "buffer": 0,
      "byteLength": 3324768,
      "name": "floatBufferViews",
      "target": 34963
    },
    {
      "buffer": 0,
      "byteLength": 1313608,
      "byteOffset": 3324768,
      "byteStride": 8,
      "name": "floatBufferViews",
      "target": 34962
    },
    {
      "buffer": 0,
      "byteLength": 3940824,
      "byteOffset": 4638376,
      "byteStride": 12,
      "name": "floatBufferViews",
      "target": 34962
    }
  ],
  "buffers": [
    {
      "byteLength": 8579200,
      "uri": "scene.bin"
    }
  ],
  "extensionsUsed": [
    "KHR_materials_unlit"
  ],
  "images": [
    {
      "uri": "textures/material0_baseColor.jpeg"
    }
  ],
  "materials": [
    {
      "doubleSided": true,
      "extensions": {
        "KHR_materials_unlit": {}
      },
      "name": "material0",
      "pbrMetallicRoughness": {
        "baseColorTexture": {
          "index": 0
        },
        "metallicFactor": 0.0
      }
    }
  ],
  "meshes": [
    {
      "name": "Model_material0_0",
      "primitives": [
        {
          "attributes": {
            "NORMAL": 1,
            "POSITION": 0,
            "TEXCOORD_0": 2
          },
          "indices": 3,
          "material": 0,
          "mode": 4
        }
      ]
    },
    {
      "name": "Model_material0_0",
      "primitives": [
        {
          "attributes": {
            "NORMAL": 5,
            "POSITION": 4,
            "TEXCOORD_0": 6
          },
          "indices": 7,
          "material": 0,
          "mode": 4
        }
      ]
    },
    {
      "name": "Model_material0_0",
      "primitives": [
        {
          "attributes": {
            "NORMAL": 9,
            "POSITION": 8,
            "TEXCOORD_0": 10
          },
          "indices": 11,
          "material": 0,
          "mode": 4
        }
      ]
    }
  ],
  "nodes": [
    {
      "children": [
        1
      ],
      "matrix": [
        0.9999591708183289,
        -0.00903815682977438,
        -1.1547853080390165e-17,
        0.0,
        0.008892621845006943,
        0.9838575124740601,
        -0.17873258888721444,
        0.0,
        0.0016154132317751646,
        0.17872528731822945,
        0.9838976860046387,
        0.0,
        0.00218378659337759,
        -0.39426195621490495,
        0.7324473857879638,
        1.0
      ],
      "name": "Sketchfab_model"
    },
    {
      "children": [
        2
      ],
      "matrix": [
        1.0,
        0.0,
        0.0,
        0.0,
        0.0,
        -1.0,
        0.0,
        0.0,
        0.0,
        0.0,
        -1.0,
        0.0,
        0.0,
        0.0,
        0.0,
        1.0
      ],
      "name": "model.fbx"
    },
    {
      "children": [
        3
      ],
      "name": "RootNode"
    },
    {
      "children": [
        4,
        5,
        6
      ],
      "name": "Model"
    },
    {
      "mesh": 0,
      "name": "Model_material0_0"
    },
    {
      "mesh": 1,
      "name": "Model_material0_0"
    },
    {
      "mesh": 2,
      "name": "Model_material0_0"
    }
  ],
  "samplers": [
    {
      "magFilter": 9729,
      "minFilter": 9987,
      "wrapS": 10497,
      "wrapT": 10497
    }
  ],
  "scene": 0,
  "scenes": [
    {
      "name": "Sketchfab_Scene",
      "nodes": [
        0
      ]
    }
  ],
  "textures": [
    {
      "sampler": 0,
      "source": 0
    }
  ]
}
